<svg xmlns="http://www.w3.org/2000/svg" viewBox="0 0 64 64">
  <defs>
    <linearGradient id="poly-bg" x1="6" y1="8" x2="58" y2="56" gradientUnits="userSpaceOnUse">
      <stop offset="0" stop-color="#ff5c5c"/>
      <stop offset="0.42" stop-color="#ffd166"/>
      <stop offset="0.72" stop-color="#37a2ff"/>
      <stop offset="1" stop-color="#7467f0"/>
    </linearGradient>
    <linearGradient id="poly-star" x1="16" y1="17" x2="47" y2="49" gradientUnits="userSpaceOnUse">
      <stop offset="0" stop-color="#ffffff"/>
      <stop offset="1" stop-color="#eaf8ff"/>
    </linearGradient>
  </defs>
  <rect width="64" height="64" rx="14" fill="#162033"/>
  <path d="M12 17.5C12 14.5 14.5 12 17.5 12h29C49.5 12 52 14.5 52 17.5v29c0 3-2.5 5.5-5.5 5.5h-29C14.5 52 12 49.5 12 46.5z" fill="url(#poly-bg)"/>
  <path d="M20 45V18h14.2c6.3 0 10.5 3.7 10.5 9.3 0 5.7-4.2 9.5-10.5 9.5h-6.3V45zm7.9-14.6h5.2c2.4 0 3.8-1.1 3.8-3.1s-1.4-3.1-3.8-3.1h-5.2z" fill="url(#poly-star)"/>
  <path d="M14.5 31.5c7.8-7.1 26.2-7.1 35 0" fill="none" stroke="#162033" stroke-width="3.2" stroke-linecap="round" opacity="0.32"/>
  <circle cx="49.5" cy="31.5" r="3.2" fill="#ffffff"/>
</svg>
